<mxfile host="app.diagrams.net" modified="2023-10-06T07:44:07.133Z" agent="Mozilla/5.0 (Windows NT 10.0; Win64; x64) AppleWebKit/537.36 (KHTML, like Gecko) Chrome/117.0.0.0 Safari/537.36" etag="AYhX54sztinXy8OqoLkW" version="22.0.3" type="github">
  <diagram name="Страница — 1" id="DNMvd5dhDP0ZgoRwr1V2">
    <mxGraphModel dx="1075" dy="552" grid="1" gridSize="10" guides="1" tooltips="1" connect="1" arrows="1" fold="1" page="1" pageScale="1" pageWidth="827" pageHeight="1169" math="0" shadow="0">
      <root>
        <mxCell id="0" />
        <mxCell id="1" parent="0" />
        <mxCell id="37RLYazfFerKv1l8wogr-28" value="Выбор услуги" style="rounded=0;whiteSpace=wrap;html=1;" vertex="1" parent="1">
          <mxGeometry x="160" y="200" width="120" height="120" as="geometry" />
        </mxCell>
        <mxCell id="37RLYazfFerKv1l8wogr-29" value="Заказ&amp;nbsp;услуги" style="rounded=0;whiteSpace=wrap;html=1;" vertex="1" parent="1">
          <mxGeometry x="320" y="360" width="120" height="120" as="geometry" />
        </mxCell>
        <mxCell id="37RLYazfFerKv1l8wogr-30" value="Выполнение заказа" style="rounded=0;whiteSpace=wrap;html=1;" vertex="1" parent="1">
          <mxGeometry x="480" y="520" width="120" height="120" as="geometry" />
        </mxCell>
        <mxCell id="37RLYazfFerKv1l8wogr-31" value="" style="endArrow=classic;html=1;rounded=0;" edge="1" parent="1">
          <mxGeometry width="50" height="50" relative="1" as="geometry">
            <mxPoint x="240" y="140" as="sourcePoint" />
            <mxPoint x="240" y="200" as="targetPoint" />
          </mxGeometry>
        </mxCell>
        <mxCell id="37RLYazfFerKv1l8wogr-32" value="С" style="text;html=1;strokeColor=none;fillColor=none;align=center;verticalAlign=middle;whiteSpace=wrap;rounded=0;" vertex="1" parent="1">
          <mxGeometry x="230" y="110" width="20" height="30" as="geometry" />
        </mxCell>
        <mxCell id="37RLYazfFerKv1l8wogr-33" value="Список оказываемых услуг" style="text;html=1;strokeColor=none;fillColor=none;align=center;verticalAlign=middle;whiteSpace=wrap;rounded=0;" vertex="1" parent="1">
          <mxGeometry x="260" y="100" width="80" height="50" as="geometry" />
        </mxCell>
        <mxCell id="37RLYazfFerKv1l8wogr-34" value="" style="endArrow=classic;html=1;rounded=0;" edge="1" parent="1">
          <mxGeometry width="50" height="50" relative="1" as="geometry">
            <mxPoint x="200" y="380" as="sourcePoint" />
            <mxPoint x="200" y="320" as="targetPoint" />
          </mxGeometry>
        </mxCell>
        <mxCell id="37RLYazfFerKv1l8wogr-35" value="M" style="text;html=1;strokeColor=none;fillColor=none;align=center;verticalAlign=middle;whiteSpace=wrap;rounded=0;" vertex="1" parent="1">
          <mxGeometry x="190" y="380" width="20" height="30" as="geometry" />
        </mxCell>
        <mxCell id="37RLYazfFerKv1l8wogr-36" value="Клиент" style="text;html=1;strokeColor=none;fillColor=none;align=center;verticalAlign=middle;whiteSpace=wrap;rounded=0;" vertex="1" parent="1">
          <mxGeometry x="130" y="385" width="60" height="20" as="geometry" />
        </mxCell>
      </root>
    </mxGraphModel>
  </diagram>
</mxfile>
